<?xml version="1.0" encoding="UTF-8" standalone="no" ?>
<!DOCTYPE svg PUBLIC "-//W3C//DTD SVG 1.1//EN" "http://www.w3.org/Graphics/SVG/1.1/DTD/svg11.dtd">
<svg xmlns="http://www.w3.org/2000/svg" xmlns:xlink="http://www.w3.org/1999/xlink" version="1.1" width="1280" height="1024" viewBox="0 0 1280 1024" xml:space="preserve">
<desc>Created with Fabric.js 4.4.0</desc>
<defs>
</defs>
<g transform="matrix(1 0 0 1 640 512)" id="background-logo"  >
<rect style="stroke: none; stroke-width: 0; stroke-dasharray: none; stroke-linecap: butt; stroke-dashoffset: 0; stroke-linejoin: miter; stroke-miterlimit: 4; fill: rgb(255,255,255); fill-opacity: 0; fill-rule: nonzero; opacity: 1;"  paint-order="stroke"  x="-640" y="-512" rx="0" ry="0" width="1280" height="1024" />
</g>
<g transform="matrix(1.9211538461538462 0 0 1.9211538461538462 640 396.64288711090603)" id="logo-logo"  >
<g style=""  paint-order="stroke"   >
		<g transform="matrix(1.3284903932728565 0 0 -1.3284903932728565 0 0)"  >
<linearGradient id="SVGID_1_2_113484" gradientUnits="userSpaceOnUse" gradientTransform="matrix(1 0 0 1 625.527 267.273)"  x1="0" y1="0" x2="0" y2="160">
<stop offset="0%" style="stop-color:rgb(225,51,65);stop-opacity: 1"/>
<stop offset="100%" style="stop-color:rgb(230,86,98);stop-opacity: 1"/>
</linearGradient>
<path style="stroke: none; stroke-width: 1; stroke-dasharray: none; stroke-linecap: butt; stroke-dashoffset: 0; stroke-linejoin: miter; stroke-miterlimit: 4; fill: url(#SVGID_1_2_113484); fill-rule: nonzero; opacity: 1;"  paint-order="stroke"  transform=" translate(-704.1819999999998, -347.1815)" d="M 723.907 422.331 C 724.36 414.444 724.279 406.52500000000003 724.303 398.61600000000004 L 724.303 398.61600000000004 C 724.303 398.34400000000005 723.416 398.071 722.943 397.797 L 722.943 397.797 C 722.76 397.70500000000004 722.578 397.612 722.396 397.52000000000004 L 722.396 397.52000000000004 C 723.4509999999999 397.663 725.2389999999999 397.499 725.449 397.997 L 725.449 397.997 C 728.846 406.075 732.043 414.236 735.481 422.87100000000004 L 735.481 422.87100000000004 C 730.008 424.40000000000003 725.062 425.78100000000006 720.374 427.09000000000003 L 720.374 427.09000000000003 C 721.6610000000001 425.43500000000006 723.815 423.942 723.907 422.331 M 660.2130000000001 414.26300000000003 C 660.773 414.09900000000005 661.2710000000001 414.23400000000004 661.7370000000001 414.44500000000005 L 661.7370000000001 414.44500000000005 C 671.6350000000001 418.92400000000004 681.9440000000001 420.47100000000006 692.6770000000001 418.61400000000003 L 692.6770000000001 418.61400000000003 C 698.3380000000001 417.63500000000005 703.5780000000001 416.134 707.7360000000001 411.398 L 707.7360000000001 411.398 C 712.1560000000001 406.363 717.4710000000001 402.113 722.3960000000001 397.52000000000004 L 722.3960000000001 397.52000000000004 C 722.5780000000001 397.612 722.7600000000001 397.70500000000004 722.9430000000001 397.797 L 722.9430000000001 397.797 C 720.5540000000001 403.634 717.8530000000001 409.36600000000004 715.8720000000001 415.336 L 715.8720000000001 415.336 C 714.066 420.778 710.884 423.526 705.1690000000001 424.69100000000003 L 705.1690000000001 424.69100000000003 C 701.2440000000001 425.49100000000004 697.4270000000001 425.88000000000005 693.7090000000001 425.88000000000005 L 693.7090000000001 425.88000000000005 C 681.605 425.88000000000005 670.548 421.75700000000006 660.2130000000001 414.26300000000003 M 725.868 396.5 C 734.5310000000001 400.184 742.8140000000001 403.707 751.6590000000001 407.468 L 751.6590000000001 407.468 C 749.6820000000001 410.348 747.6840000000001 413.25800000000004 745.4020000000002 416.581 L 745.4020000000002 416.581 C 738.619 409.608 732.338 403.15 725.868 396.5 M 650.772 402.14 C 636.465 393.901 626.9490000000001 377.57099999999997 625.527 361.15999999999997 L 625.527 361.15999999999997 C 626.4350000000001 363.441 627.053 365.08 627.735 366.691 L 627.735 366.691 C 638.212 391.512 666.731 404.291 692.1 395.65099999999995 L 692.1 395.65099999999995 C 694.253 394.917 696.678 394.74099999999993 698.98 394.73199999999997 L 698.98 394.73199999999997 C 706.6940000000001 394.702 714.41 394.866 722.125 394.95599999999996 L 722.125 394.95599999999996 C 722.255 394.53599999999994 722.388 394.11499999999995 722.518 393.69399999999996 L 722.518 393.69399999999996 C 714.543 390.45099999999996 706.596 387.13199999999995 698.561 384.044 L 698.561 384.044 C 697.361 383.584 695.664 383.948 694.3330000000001 384.366 L 694.3330000000001 384.366 C 655.6350000000001 396.517 619.109 363.74699999999996 627.2660000000001 324.09 L 627.2660000000001 324.09 C 629.0100000000001 315.609 632.7520000000001 308.00899999999996 638.148 301.25199999999995 L 638.148 301.25199999999995 C 631.1460000000001 316.395 630.22 331.811 637.268 346.91499999999996 L 637.268 346.91499999999996 C 648.698 371.40799999999996 673.7270000000001 382.54499999999996 699.664 375.12299999999993 L 699.664 375.12299999999993 C 703.116 374.13399999999996 704.9879999999999 374.89899999999994 707.189 377.25499999999994 L 707.189 377.25499999999994 C 712.336 382.76399999999995 717.6949999999999 388.07599999999996 722.968 393.46799999999996 L 722.968 393.46799999999996 C 723.212 393.29099999999994 723.456 393.114 723.699 392.936 L 723.699 392.936 C 720.353 384.531 717.006 376.126 713.406 367.08299999999997 L 713.406 367.08299999999997 C 717.37 366.38 720.8489999999999 365.763 724.7719999999999 365.068 L 724.7719999999999 365.068 C 724.6809999999999 374.902 724.5989999999999 383.9 724.515 392.89799999999997 L 724.515 392.89799999999997 C 724.781 392.97499999999997 725.047 393.05299999999994 725.313 393.131 L 725.313 393.131 C 718.5409999999999 397.81199999999995 711.06 401.41499999999996 702.7189999999999 403.71999999999997 L 702.7189999999999 403.71999999999997 C 700.886 404.227 699.1619999999999 405.121 697.3799999999999 405.815 L 697.3799999999999 405.815 C 690.6779999999999 408.424 684.0769999999999 409.714 677.5769999999999 409.714 L 677.5769999999999 409.714 C 668.4359999999999 409.713 659.4949999999999 407.162 650.7719999999999 402.14 M 726.9499999999999 395.068 C 726.9419999999999 394.816 726.9329999999999 394.565 726.925 394.313 L 726.925 394.313 C 735.1899999999999 391.022 743.457 387.731 752.348 384.191 L 752.348 384.191 C 753.0609999999999 387.89799999999997 753.703 391.239 754.5039999999999 395.402 L 754.5039999999999 395.402 C 744.7989999999999 395.284 735.8739999999999 395.176 726.9499999999999 395.068 M 725.313 393.131 C 725.648 392.89899999999994 725.982 392.66499999999996 726.314 392.428 L 726.314 392.428 C 726.198 392.726 726.081 393.024 725.9649999999999 393.322 L 725.9649999999999 393.322 C 725.7479999999999 393.258 725.53 393.195 725.3129999999999 393.13100000000003 M 736.1279999999999 367.26800000000003 C 739.7629999999999 369.85 742.6389999999999 371.89300000000003 745.7649999999999 374.115 L 745.7649999999999 374.115 C 744.1999999999998 375.718 743.1329999999999 376.705 742.1859999999999 377.797 L 742.1859999999999 377.797 C 737.353 383.37600000000003 732.0949999999999 388.29900000000004 726.314 392.428 L 726.314 392.428 C 729.486 384.296 732.6669999999999 376.138 736.1279999999999 367.268 M 656.5809999999999 354.90799999999996 C 641.873 339.152 638.498 320.44 646.069 300.121 L 646.069 300.121 C 653.0709999999999 281.33099999999996 671.2479999999999 269.044 689.6089999999999 267.27299999999997 L 689.6089999999999 267.27299999999997 C 660.049 282.758 648.9029999999999 302.86199999999997 655.3969999999999 330.20599999999996 L 655.3969999999999 330.20599999999996 C 659.986 349.52099999999996 677.4749999999999 368.91499999999996 707.1139999999999 369.436 L 707.1139999999999 369.436 C 702.2869999999999 370.53299999999996 697.5869999999999 371.094 693.0409999999999 371.094 L 693.0409999999999 371.094 C 679.256 371.094 666.876 365.93399999999997 656.5809999999999 354.908 M 664.9019999999999 319.095 C 665.367 297.93100000000004 678.0669999999999 279.29200000000003 697.222 271.65700000000004 L 697.222 271.65700000000004 C 715.8059999999999 264.24800000000005 739.497 268.02700000000004 751.535 280.319 L 751.535 280.319 C 723.0849999999999 266.498 697.0509999999999 278.125 684.278 295.71500000000003 L 684.278 295.71500000000003 C 672.916 311.36100000000005 667.605 338.845 689.602 363.199 L 689.602 363.199 C 675.986 357.208 664.515 336.725 664.9019999999999 319.095 M 751.084 353.076 C 746.4639999999999 343.057 739.03 335.15500000000003 728.935 330.66400000000004 L 728.935 330.66400000000004 C 721.5619999999999 327.38400000000007 713.536 325.57500000000005 706.891 323.458 L 706.891 323.458 C 725.4789999999999 316.031 760.428 334.706 763.8729999999999 355.487 L 763.8729999999999 355.487 C 762.2059999999999 355.886 760.4879999999999 356.20000000000005 758.8319999999999 356.71200000000005 L 758.8319999999999 356.71200000000005 C 757.8019999999999 357.03100000000006 756.8929999999999 357.20500000000004 756.0769999999999 357.20500000000004 L 756.0769999999999 357.20500000000004 C 753.9329999999999 357.20500000000004 752.4339999999999 356.00600000000003 751.0839999999998 353.076 M 729.7689999999998 343.48 C 727.3559999999998 338.909 724.1399999999998 334.76 720.9899999999998 329.99100000000004 L 720.9899999999998 329.99100000000004 C 730.3739999999998 336.01200000000006 736.9529999999997 343.74100000000004 741.5919999999998 354.391 L 741.5919999999998 354.391 C 735.2969999999998 352.24100000000004 732.3079999999998 348.29 729.7689999999998 343.48 M 736.2159999999998 317.175 C 718.2849999999997 313.50100000000003 702.6259999999997 318.755 688.8429999999997 330.592 L 688.8429999999997 330.592 C 689.1979999999998 329.957 689.5059999999997 329.291 689.9119999999997 328.692 L 689.9119999999997 328.692 C 710.9139999999996 297.66 759.2839999999997 299.847 777.4329999999997 332.645 L 777.4329999999997 332.645 C 781.4459999999997 339.894 780.8699999999997 342.734 774.0209999999996 348.4 L 774.0209999999996 348.4 C 766.5919999999996 331.70799999999997 754.1329999999996 320.84499999999997 736.2159999999997 317.17499999999995 M 696.3479999999996 298.78399999999993 C 710.8279999999996 284.2459999999999 733.5919999999996 279.7389999999999 752.1809999999996 287.73599999999993 L 752.1809999999996 287.73599999999993 C 768.8599999999996 294.9119999999999 779.6349999999995 307.10799999999995 782.8369999999995 325.39099999999996 L 782.8369999999995 325.39099999999996 C 769.731 302.84 750.56 291.279 724.544 296.52 L 724.544 296.52 C 698.268 301.817 685.278 320.156 682.2139999999999 346.186 L 682.2139999999999 346.186 C 678.6389999999999 327.92999999999995 683.185 311.996 696.348 298.784" stroke-linecap="round" />
</g>
</g>
</g>
<g transform="matrix(1.9211538461538462 0 0 1.9211538461538462 639.2469076923079 704.6781513411946)" id="text-logo"  >
<g style=""  paint-order="stroke"   >
		<g transform="matrix(1 0 0 1 0 0)" id="text-logo-path-0"  >
<path style="stroke: none; stroke-width: 0; stroke-dasharray: none; stroke-linecap: butt; stroke-dashoffset: 0; stroke-linejoin: miter; stroke-miterlimit: 4; fill: rgb(225,51,65); fill-rule: nonzero; opacity: 1;"  paint-order="stroke"  transform=" translate(-266.415, 19.11)" d="M 11.07 -18.13 L 11.07 -20.09 C 11.07 -26.71 11.76 -30.87 16.41 -30.87 L 16.91 -30.87 C 20.58 -30.87 21.32 -27.93 21.32 -23.52 L 30.63 -23.52 L 30.63 -25.43 C 30.63 -35.28 25.77 -38.91 16.41 -38.91 C 6.13 -38.91 1.62 -33.32 1.62 -20.09 L 1.62 -18.13 C 1.62 -4.9 6.13 0.69 16.41 0.69 C 25.77 0.69 30.63 -2.94 30.63 -12.79 L 30.63 -13.23 L 21.32 -13.23 C 21.32 -9.8 20.19 -7.35 16.91 -7.35 L 16.41 -7.35 C 11.76 -7.35 11.07 -11.52 11.07 -18.13 Z M 51.11 -38.22 L 41.99 0 L 51.99 0 L 53.51 -7.74 L 61.45 -7.74 L 63.01 0 L 72.96 0 L 63.85 -38.22 Z M 57.48 -27.44 L 59.83 -15.78 L 55.13 -15.78 Z M 114.56 -38.22 L 105.74 -38.22 L 105.74 -24.5 L 105.99 -17.15 L 95.45 -38.22 L 85.65 -38.22 L 85.65 0 L 94.47 0 L 94.47 -13.72 L 94.23 -21.07 L 104.76 0 L 114.56 0 Z M 158.03 -18.13 L 158.03 -20.09 C 158.03 -33.32 153.52 -38.22 141.51 -38.22 L 129.26 -38.22 L 129.26 0 L 141.51 0 C 153.52 0 158.03 -4.9 158.03 -18.13 Z M 138.57 -8.04 L 138.57 -30.18 L 141.02 -30.18 C 147.39 -30.18 148.57 -26.71 148.57 -20.09 L 148.57 -18.13 C 148.57 -11.52 147.39 -8.04 141.02 -8.04 Z M 188.06 -11.76 L 198.89 -38.22 L 188.7 -38.22 L 183.41 -23.23 L 178.12 -38.22 L 167.92 -38.22 L 178.75 -11.76 L 178.75 0 L 188.06 0 Z M 220.65 -13.13 L 223.24 -13.13 L 228.24 0 L 238.29 0 L 232.41 -14.41 C 235.79 -15.93 238.29 -18.96 238.29 -25.19 L 238.29 -26.17 C 238.29 -36.75 230.99 -38.22 224.52 -38.22 L 211.34 -38.22 L 211.34 0 L 220.65 0 Z M 220.65 -21.17 L 220.65 -30.18 L 224.91 -30.18 C 226.72 -30.18 228.88 -29.5 228.88 -25.87 L 228.88 -25.48 C 228.88 -21.85 226.72 -21.17 224.91 -21.17 Z M 265.97 0.69 C 276.26 0.69 281.01 -4.9 281.01 -18.13 L 281.01 -20.09 C 281.01 -33.32 276.26 -38.91 265.97 -38.91 C 255.68 -38.91 250.93 -33.32 250.93 -20.09 L 250.93 -18.13 C 250.93 -4.9 255.68 0.69 265.97 0.69 Z M 265.73 -7.35 C 261.32 -7.35 260.39 -11.52 260.39 -18.13 L 260.39 -20.09 C 260.39 -26.71 261.32 -30.87 265.73 -30.87 L 266.22 -30.87 C 270.63 -30.87 271.56 -26.71 271.56 -20.09 L 271.56 -18.13 C 271.56 -11.52 270.63 -7.35 266.22 -7.35 Z M 317.67 0 L 317.67 -8.04 L 304.19 -8.04 L 304.19 -38.22 L 294.88 -38.22 L 294.88 0 Z M 353.44 0 L 353.44 -8.04 L 339.96 -8.04 L 339.96 -38.22 L 330.65 -38.22 L 330.65 0 Z M 401.36 -30.18 L 409.93 -30.18 L 409.93 -38.22 L 383.47 -38.22 L 383.47 -30.18 L 392.05 -30.18 L 392.05 0 L 401.36 0 Z M 422.92 -38.22 L 422.92 0 L 446.93 0 L 446.93 -8.04 L 432.23 -8.04 L 432.23 -15.48 L 444.48 -15.48 L 444.48 -23.52 L 432.23 -23.52 L 432.23 -30.18 L 446.93 -30.18 L 446.93 -38.22 Z M 469.76 -18.13 L 469.76 -20.09 C 469.76 -26.71 470.45 -30.87 475.1 -30.87 L 475.59 -30.87 C 479.27 -30.87 480 -27.93 480 -23.52 L 489.31 -23.52 L 489.31 -25.43 C 489.31 -35.28 484.46 -38.91 475.1 -38.91 C 464.81 -38.91 460.31 -33.32 460.31 -20.09 L 460.31 -18.13 C 460.31 -4.9 464.81 0.69 475.1 0.69 C 484.46 0.69 489.31 -2.94 489.31 -12.79 L 489.31 -13.23 L 480 -13.23 C 480 -9.8 478.88 -7.35 475.59 -7.35 L 475.1 -7.35 C 470.45 -7.35 469.76 -11.52 469.76 -18.13 Z M 521.9 -38.22 L 521.9 -23.52 L 512.59 -23.52 L 512.59 -38.22 L 503.28 -38.22 L 503.28 0 L 512.59 0 L 512.59 -15.48 L 521.9 -15.48 L 521.9 0 L 531.21 0 L 531.21 -38.22 Z" stroke-linecap="round" />
</g>
</g>
</g>
<g transform="matrix(1.9211538461538462 0 0 1.9211538461538462 639.960234250269 795.9274711112913)" id="tagline-80af608b-7dd9-4614-b930-bdc2f94c96aa-logo"  >
<g style=""  paint-order="stroke"   >
		<g transform="matrix(1 0 0 1 0 0)" id="tagline-80af608b-7dd9-4614-b930-bdc2f94c96aa-logo-path-0"  >
<path style="stroke: none; stroke-width: 0; stroke-dasharray: none; stroke-linecap: butt; stroke-dashoffset: 0; stroke-linejoin: miter; stroke-miterlimit: 4; fill: rgb(228,78,90); fill-rule: nonzero; opacity: 1;"  paint-order="stroke"  transform=" translate(-260.13515505253235, 9.785)" d="M 1.71 -2.74 C 3.36 -0.98 5.57 0.14 8.12 0.14 C 11.87 0.14 14.7 -2.52 14.7 -5.26 C 14.7 -8.99 11.26 -10.72 8.6 -11.73 C 6.13 -12.66 4.9 -13.24 4.9 -14.34 C 4.9 -15.46 5.74 -16.38 8.04 -16.38 C 9.6 -16.38 10.53 -15.9 11.2 -15.09 C 11.51 -14.73 11.98 -14.5 12.49 -14.5 C 13.41 -14.5 14.14 -15.23 14.14 -16.16 C 14.14 -16.58 14 -16.97 13.72 -17.25 C 12.49 -18.65 10.67 -19.74 8.04 -19.74 C 4.03 -19.74 1.54 -17.02 1.54 -14.34 C 1.54 -11.26 4.2 -9.8 7.42 -8.6 C 9.8 -7.67 11.34 -6.89 11.34 -5.26 C 11.34 -4.2 10.3 -3.22 8.12 -3.22 C 6.5 -3.22 5.24 -3.84 4.14 -5.04 C 3.84 -5.38 3.39 -5.57 2.91 -5.57 C 1.99 -5.57 1.23 -4.82 1.23 -3.89 C 1.23 -3.44 1.4 -3.05 1.71 -2.74 Z M 37.07 -3.22 C 33.21 -3.22 30.46 -5.96 30.46 -9.83 C 30.46 -13.64 33.21 -16.38 37.07 -16.38 C 40.91 -16.38 43.65 -13.64 43.65 -9.83 C 43.65 -5.96 40.91 -3.22 37.07 -3.22 Z M 37.07 0.14 C 42.53 0.14 47.01 -4.34 47.01 -9.83 C 47.01 -15.26 42.53 -19.74 37.07 -19.74 C 31.58 -19.74 27.1 -15.26 27.1 -9.83 C 27.1 -4.34 31.58 0.14 37.07 0.14 Z M 63.34 -1.51 L 63.34 -7.08 C 63.34 -7.64 63.81 -8.12 64.37 -8.12 L 69.66 -8.12 C 70.59 -8.12 71.34 -8.88 71.34 -9.8 C 71.34 -10.72 70.59 -11.48 69.66 -11.48 L 64.37 -11.48 C 63.81 -11.48 63.34 -11.96 63.34 -12.52 L 63.34 -15.2 C 63.34 -15.76 63.81 -16.24 64.37 -16.24 L 71.62 -16.24 C 72.55 -16.24 73.3 -17 73.3 -17.92 C 73.3 -18.84 72.55 -19.6 71.62 -19.6 L 62.08 -19.6 C 60.93 -19.6 59.98 -18.65 59.98 -17.5 L 59.98 -1.51 C 59.98 -0.59 60.73 0.17 61.66 0.17 C 62.58 0.17 63.34 -0.59 63.34 -1.51 Z M 95.26 -1.51 L 95.26 -15.2 C 95.26 -15.76 95.73 -16.24 96.29 -16.24 L 99.2 -16.24 C 100.13 -16.24 100.88 -17 100.88 -17.92 C 100.88 -18.84 100.13 -19.6 99.2 -19.6 L 87.95 -19.6 C 87.02 -19.6 86.27 -18.84 86.27 -17.92 C 86.27 -17 87.02 -16.24 87.95 -16.24 L 90.86 -16.24 C 91.42 -16.24 91.9 -15.76 91.9 -15.2 L 91.9 -1.51 C 91.9 -0.59 92.65 0.17 93.58 0.17 C 94.5 0.17 95.26 -0.59 95.26 -1.51 Z M 113.48 -17.7 L 118.52 -1.34 C 119.17 0.81 122.19 0.81 122.84 -1.32 L 126.39 -12.46 C 126.56 -12.99 126.84 -12.99 127.01 -12.46 L 130.56 -1.32 C 131.21 0.81 134.23 0.81 134.88 -1.34 L 139.92 -17.7 C 139.94 -17.84 139.97 -18 139.97 -18.14 C 139.97 -19.1 139.22 -19.82 138.29 -19.82 C 137.54 -19.82 136.86 -19.32 136.67 -18.62 L 133 -6.61 C 132.83 -6.08 132.55 -6.08 132.38 -6.61 L 128.66 -18.34 C 128.07 -20.3 125.33 -20.3 124.74 -18.34 L 121.02 -6.61 C 120.85 -6.08 120.57 -6.08 120.4 -6.61 L 116.73 -18.62 C 116.54 -19.32 115.86 -19.82 115.11 -19.82 C 114.18 -19.82 113.43 -19.1 113.43 -18.14 C 113.43 -18 113.46 -17.84 113.48 -17.7 Z M 119.64 -2.32 L 119.64 -2.35 Z M 121.72 -2.32 L 121.72 -2.3 Z M 127.93 -17.33 L 127.93 -17.36 Z M 131.68 -2.3 L 131.68 -2.32 Z M 133.76 -2.35 L 133.76 -2.32 Z M 167.72 -2.07 L 160.89 -18.28 C 160.1 -20.22 157.47 -20.22 156.69 -18.28 L 149.86 -2.07 C 149.77 -1.88 149.72 -1.65 149.72 -1.4 C 149.72 -0.48 150.47 0.28 151.4 0.28 C 152.07 0.28 152.66 -0.11 152.94 -0.7 L 153.78 -2.69 C 153.97 -3.19 154.64 -3.64 155.2 -3.64 L 162.37 -3.64 C 162.93 -3.64 163.6 -3.19 163.8 -2.69 L 164.64 -0.7 C 164.92 -0.11 165.51 0.28 166.18 0.28 C 167.1 0.28 167.86 -0.48 167.86 -1.4 C 167.86 -1.65 167.8 -1.88 167.72 -2.07 Z M 155.99 -7.95 L 155.99 -7.95 L 158.4 -13.64 C 158.59 -14.14 158.98 -14.14 159.18 -13.64 L 161.59 -7.95 C 161.78 -7.45 161.5 -7 160.94 -7 L 156.63 -7 C 156.07 -7 155.79 -7.45 155.99 -7.95 Z M 184.18 -1.51 L 184.18 -4.17 C 184.18 -4.73 184.66 -5.21 185.22 -5.21 L 186.76 -5.21 C 187.32 -5.21 188.08 -4.84 188.44 -4.4 L 191.41 -0.5 C 191.72 -0.11 192.19 0.14 192.72 0.14 C 193.65 0.14 194.4 -0.62 194.4 -1.54 C 194.4 -1.93 194.29 -2.3 194.07 -2.58 L 192.05 -5.21 C 191.72 -5.63 191.83 -6.27 192.3 -6.58 C 194.12 -7.87 195.33 -10.02 195.33 -12.4 C 195.33 -16.3 192.05 -19.57 188.16 -19.57 L 182.92 -19.57 C 181.78 -19.57 180.82 -18.65 180.82 -17.5 L 180.82 -1.51 C 180.82 -0.59 181.58 0.17 182.5 0.17 C 183.43 0.17 184.18 -0.59 184.18 -1.51 Z M 184.18 -9.6 L 184.18 -9.6 L 184.18 -15.18 C 184.18 -15.74 184.66 -16.21 185.22 -16.21 L 188.16 -16.21 C 190.43 -16.21 191.97 -14.67 191.97 -12.4 C 191.97 -10.11 190.43 -8.57 188.16 -8.57 L 185.22 -8.57 C 184.66 -8.57 184.18 -9.04 184.18 -9.6 Z M 219.94 -3.36 L 212.69 -3.36 C 212.13 -3.36 211.65 -3.84 211.65 -4.4 L 211.65 -7.08 C 211.65 -7.64 212.13 -8.12 212.69 -8.12 L 217.98 -8.12 C 218.9 -8.12 219.66 -8.88 219.66 -9.8 C 219.66 -10.72 218.9 -11.48 217.98 -11.48 L 212.69 -11.48 C 212.13 -11.48 211.65 -11.96 211.65 -12.52 L 211.65 -15.2 C 211.65 -15.76 212.13 -16.24 212.69 -16.24 L 219.94 -16.24 C 220.86 -16.24 221.62 -17 221.62 -17.92 C 221.62 -18.84 220.86 -19.6 219.94 -19.6 L 210.39 -19.6 C 209.24 -19.6 208.29 -18.65 208.29 -17.5 L 208.29 -2.1 C 208.29 -0.95 209.24 0 210.39 0 L 219.94 0 C 220.86 0 221.62 -0.76 221.62 -1.68 C 221.62 -2.6 220.86 -3.36 219.94 -3.36 Z M 237.86 -0.9 L 243.74 -17.64 C 243.8 -17.81 243.82 -18 243.82 -18.17 C 243.82 -19.1 243.07 -19.85 242.14 -19.85 C 241.39 -19.85 240.77 -19.38 240.55 -18.7 L 234.67 -1.96 C 234.61 -1.79 234.58 -1.6 234.58 -1.43 C 234.58 -0.5 235.34 0.25 236.26 0.25 C 237.02 0.25 237.64 -0.22 237.86 -0.9 Z M 270.37 -4.28 C 269.33 -3.58 268.16 -3.22 266.76 -3.22 C 262.89 -3.22 260.15 -5.96 260.15 -9.83 C 260.15 -13.64 262.89 -16.38 266.76 -16.38 C 268.16 -16.38 269.33 -16.02 270.37 -15.29 C 270.62 -15.12 270.96 -15.01 271.29 -15.01 C 272.22 -15.01 272.97 -15.76 272.97 -16.69 C 272.97 -17.28 272.66 -17.78 272.22 -18.09 C 270.65 -19.12 268.74 -19.74 266.76 -19.74 C 261.27 -19.74 256.79 -15.26 256.79 -9.83 C 256.79 -4.34 261.27 0.14 266.76 0.14 C 268.77 0.14 270.68 -0.48 272.22 -1.54 C 272.69 -1.82 272.97 -2.32 272.97 -2.91 C 272.97 -3.84 272.22 -4.59 271.29 -4.59 C 270.96 -4.59 270.62 -4.48 270.37 -4.28 Z M 295.34 -3.22 C 291.48 -3.22 288.74 -5.96 288.74 -9.83 C 288.74 -13.64 291.48 -16.38 295.34 -16.38 C 299.18 -16.38 301.92 -13.64 301.92 -9.83 C 301.92 -5.96 299.18 -3.22 295.34 -3.22 Z M 295.34 0.14 C 300.8 0.14 305.28 -4.34 305.28 -9.83 C 305.28 -15.26 300.8 -19.74 295.34 -19.74 C 289.86 -19.74 285.38 -15.26 285.38 -9.83 C 285.38 -4.34 289.86 0.14 295.34 0.14 Z M 321.61 -1.51 L 321.61 -12.74 C 321.61 -13.3 321.89 -13.38 322.2 -12.94 L 330.88 -0.78 C 332.11 0.92 334.77 0.06 334.77 -2.04 L 334.77 -18.09 C 334.77 -19.01 334.01 -19.77 333.09 -19.77 C 332.16 -19.77 331.41 -19.01 331.41 -18.09 L 331.41 -6.89 C 331.41 -6.33 331.13 -6.24 330.82 -6.69 L 322.14 -18.84 C 320.91 -20.55 318.25 -19.68 318.25 -17.58 L 318.25 -1.51 C 318.25 -0.59 319 0.17 319.93 0.17 C 320.85 0.17 321.61 -0.59 321.61 -1.51 Z M 348.21 -2.74 C 349.86 -0.98 352.07 0.14 354.62 0.14 C 358.37 0.14 361.2 -2.52 361.2 -5.26 C 361.2 -8.99 357.76 -10.72 355.1 -11.73 C 352.63 -12.66 351.4 -13.24 351.4 -14.34 C 351.4 -15.46 352.24 -16.38 354.54 -16.38 C 356.1 -16.38 357.03 -15.9 357.7 -15.09 C 358.01 -14.73 358.48 -14.5 358.99 -14.5 C 359.91 -14.5 360.64 -15.23 360.64 -16.16 C 360.64 -16.58 360.5 -16.97 360.22 -17.25 C 358.99 -18.65 357.17 -19.74 354.54 -19.74 C 350.53 -19.74 348.04 -17.02 348.04 -14.34 C 348.04 -11.26 350.7 -9.8 353.92 -8.6 C 356.3 -7.67 357.84 -6.89 357.84 -5.26 C 357.84 -4.2 356.8 -3.22 354.62 -3.22 C 353 -3.22 351.74 -3.84 350.64 -5.04 C 350.34 -5.38 349.89 -5.57 349.41 -5.57 C 348.49 -5.57 347.73 -4.82 347.73 -3.89 C 347.73 -3.44 347.9 -3.05 348.21 -2.74 Z M 386.76 -18.09 L 386.76 -8.12 C 386.76 -5.21 384.78 -3.22 381.86 -3.22 C 378.95 -3.22 376.96 -5.21 376.96 -8.12 L 376.96 -18.09 C 376.96 -19.01 376.21 -19.77 375.28 -19.77 C 374.36 -19.77 373.6 -19.01 373.6 -18.09 L 373.6 -8.12 C 373.6 -3.58 377.33 0.14 381.86 0.14 C 386.4 0.14 390.12 -3.58 390.12 -8.12 L 390.12 -18.09 C 390.12 -19.01 389.37 -19.77 388.44 -19.77 C 387.52 -19.77 386.76 -19.01 386.76 -18.09 Z M 414.18 -3.36 L 406.92 -3.36 C 406.36 -3.36 405.89 -3.84 405.89 -4.4 L 405.89 -18.09 C 405.89 -19.01 405.13 -19.77 404.21 -19.77 C 403.28 -19.77 402.53 -19.01 402.53 -18.09 L 402.53 -2.1 C 402.53 -0.95 403.48 0 404.63 0 L 414.18 0 C 415.1 0 415.86 -0.76 415.86 -1.68 C 415.86 -2.6 415.1 -3.36 414.18 -3.36 Z M 434.73 -1.51 L 434.73 -15.2 C 434.73 -15.76 435.2 -16.24 435.76 -16.24 L 438.68 -16.24 C 439.6 -16.24 440.36 -17 440.36 -17.92 C 440.36 -18.84 439.6 -19.6 438.68 -19.6 L 427.42 -19.6 C 426.5 -19.6 425.74 -18.84 425.74 -17.92 C 425.74 -17 426.5 -16.24 427.42 -16.24 L 430.33 -16.24 C 430.89 -16.24 431.37 -15.76 431.37 -15.2 L 431.37 -1.51 C 431.37 -0.59 432.12 0.17 433.05 0.17 C 433.97 0.17 434.73 -0.59 434.73 -1.51 Z M 456.68 -1.51 L 456.68 -18.09 C 456.68 -19.01 455.92 -19.77 455 -19.77 C 454.08 -19.77 453.32 -19.01 453.32 -18.09 L 453.32 -1.51 C 453.32 -0.59 454.08 0.17 455 0.17 C 455.92 0.17 456.68 -0.59 456.68 -1.51 Z M 473 -1.51 L 473 -12.74 C 473 -13.3 473.28 -13.38 473.59 -12.94 L 482.27 -0.78 C 483.5 0.92 486.16 0.06 486.16 -2.04 L 486.16 -18.09 C 486.16 -19.01 485.41 -19.77 484.48 -19.77 C 483.56 -19.77 482.8 -19.01 482.8 -18.09 L 482.8 -6.89 C 482.8 -6.33 482.52 -6.24 482.22 -6.69 L 473.54 -18.84 C 472.3 -20.55 469.64 -19.68 469.64 -17.58 L 469.64 -1.51 C 469.64 -0.59 470.4 0.17 471.32 0.17 C 472.25 0.17 473 -0.59 473 -1.51 Z M 510.61 -8.15 L 514.44 -8.15 C 515 -8.15 515.34 -7.7 515.17 -7.17 C 514.22 -4.76 511.98 -3.22 509.1 -3.22 C 505.23 -3.22 502.49 -5.96 502.49 -9.83 C 502.49 -13.64 505.23 -16.38 509.1 -16.38 C 510.5 -16.38 511.67 -16.02 512.71 -15.32 C 512.96 -15.15 513.3 -15.04 513.63 -15.04 C 514.56 -15.04 515.31 -15.76 515.31 -16.69 C 515.31 -17.28 515 -17.81 514.56 -18.09 C 512.99 -19.12 511.11 -19.74 509.1 -19.74 C 503.61 -19.74 499.13 -15.26 499.13 -9.83 C 499.13 -4.34 503.61 0.14 509.1 0.14 C 514.42 0.14 518.78 -4.09 519.04 -9.35 C 519.06 -10.53 518.11 -11.51 516.94 -11.51 L 510.61 -11.51 C 509.68 -11.51 508.93 -10.75 508.93 -9.83 C 508.93 -8.9 509.68 -8.15 510.61 -8.15 Z" stroke-linecap="round" />
</g>
</g>
</g>
</svg>